<svg xmlns="http://www.w3.org/2000/svg" version="1.1" xmlns:xlink="http://www.w3.org/1999/xlink" xmlns:svgjs="http://svgjs.dev/svgjs" width="2000" height="540" viewBox="0 0 2000 540"><g transform="matrix(1,0,0,1,-1.2121212121212466,-0.8029657258283578)"><svg viewBox="0 0 396 107" data-background-color="#990708" preserveAspectRatio="xMidYMid meet" height="540" width="2000" xmlns="http://www.w3.org/2000/svg" xmlns:xlink="http://www.w3.org/1999/xlink"><g id="tight-bounds" transform="matrix(1,0,0,1,0.2400000000000091,0.15910617159931917)"><svg viewBox="0 0 395.52 106.68178765680136" height="106.68178765680136" width="395.52"><g><svg viewBox="0 0 544.3700138491379 146.83041622214742" height="106.68178765680136" width="395.52"><g transform="matrix(1,0,0,1,148.8500138491379,20.29277098294513)"><svg viewBox="0 0 395.52000000000004 106.24487425625716" height="106.24487425625716" width="395.52000000000004"><g id="textblocktransform"><svg viewBox="0 0 395.52000000000004 106.24487425625716" height="106.24487425625716" width="395.52000000000004" id="textblock"><g><svg viewBox="0 0 395.52000000000004 60.73434864694776" height="60.73434864694776" width="395.52000000000004"><g transform="matrix(1,0,0,1,0,0)"><svg width="395.52000000000004" viewBox="1 -40.95 317.77 48.800000000000004" height="60.73434864694776" data-palette-color="#ffffff"><path d="M7.95 0L1 0 9.1-40.5 17-40.5 25.1 0 18.25 0 16.65-9.35 9.6-9.35 7.95 0ZM13.1-31.05L10.35-14.05 15.85-14.05 13.1-31.05ZM34.3 0.45L34.3 0.45Q32.35 0.45 30.95-0.58 29.55-1.6 28.8-3.18 28.05-4.75 28.05-6.45L28.05-6.45Q28.05-9.15 29.05-11 30.05-12.85 31.7-14.1 33.35-15.35 35.45-16.28 37.55-17.2 39.7-17.95L39.7-17.95 39.7-20.45Q39.7-21.7 39.52-22.55 39.35-23.4 38.87-23.85 38.4-24.3 37.4-24.3L37.4-24.3Q36.55-24.3 36.02-23.9 35.5-23.5 35.27-22.78 35.05-22.05 35-21.1L35-21.1 34.9-19.35 28.45-19.6Q28.6-24.6 30.92-26.98 33.25-29.35 38-29.35L38-29.35Q42.35-29.35 44.32-26.95 46.3-24.55 46.3-20.45L46.3-20.45 46.3-7.1Q46.3-5.5 46.37-4.2 46.45-2.9 46.57-1.85 46.7-0.8 46.8 0L46.8 0 40.7 0Q40.55-1 40.32-2.27 40.1-3.55 40-4.15L40-4.15Q39.5-2.4 38.1-0.98 36.7 0.45 34.3 0.45ZM36.8-4.6L36.8-4.6Q37.45-4.6 38.02-4.93 38.6-5.25 39.05-5.7 39.5-6.15 39.7-6.5L39.7-6.5 39.7-14.55Q38.6-13.9 37.62-13.25 36.65-12.6 35.92-11.83 35.2-11.05 34.82-10.15 34.45-9.25 34.45-8.05L34.45-8.05Q34.45-6.45 35.07-5.53 35.7-4.6 36.8-4.6ZM52.8 7.85L51.5 7.85 51.5 2.95Q53.25 2.95 54.35 2.75 55.45 2.55 55.95 2.05 56.45 1.55 56.45 0.65L56.45 0.65Q56.45 0 56.12-1.4 55.8-2.8 55.4-4.45L55.4-4.45 49.05-28.9 55.65-28.9 59.4-9.85 62.65-28.9 69.2-28.9 62.45 1.15Q61.9 3.7 60.6 5.15 59.3 6.6 57.35 7.23 55.4 7.85 52.8 7.85L52.8 7.85ZM76.99 0.45L76.99 0.45Q75.29 0.45 74.19-0.43 73.09-1.3 72.59-2.78 72.09-4.25 72.09-5.9L72.09-5.9 72.09-28.9 78.89-28.9 78.89-7.15Q78.89-5.85 79.32-5.13 79.74-4.4 80.89-4.4L80.89-4.4Q81.64-4.4 82.42-4.8 83.19-5.2 83.94-5.75L83.94-5.75 83.94-28.9 90.74-28.9 90.74 0 83.94 0 83.94-2.75Q82.49-1.35 80.74-0.45 78.99 0.45 76.99 0.45ZM103.84 0.45L103.84 0.45Q100.19 0.45 97.84-1.5 95.49-3.45 94.49-7.2L94.49-7.2 99.54-9.15Q100.14-6.8 101.14-5.55 102.14-4.3 103.74-4.3L103.74-4.3Q104.94-4.3 105.54-4.9 106.14-5.5 106.14-6.55L106.14-6.55Q106.14-7.75 105.42-8.72 104.69-9.7 102.94-11.15L102.94-11.15 99.44-14.1Q97.54-15.75 96.37-17.48 95.19-19.2 95.19-21.8L95.19-21.8Q95.19-24.15 96.27-25.83 97.34-27.5 99.22-28.43 101.09-29.35 103.39-29.35L103.39-29.35Q106.89-29.35 109.02-27.28 111.14-25.2 111.74-21.85L111.74-21.85 107.29-19.95Q107.04-21.15 106.57-22.18 106.09-23.2 105.34-23.85 104.59-24.5 103.59-24.5L103.59-24.5Q102.54-24.5 101.92-23.85 101.29-23.2 101.29-22.2L101.29-22.2Q101.29-21.35 102.02-20.45 102.74-19.55 104.09-18.4L104.09-18.4 107.64-15.2Q108.79-14.2 109.84-13.05 110.89-11.9 111.59-10.48 112.29-9.05 112.29-7.2L112.29-7.2Q112.29-4.7 111.17-3 110.04-1.3 108.12-0.43 106.19 0.45 103.84 0.45ZM122.89 0L116.09 0 116.09-40.5 122.89-40.5 122.89-26.15Q124.39-27.65 126.16-28.5 127.94-29.35 130.04-29.35L130.04-29.35Q131.79-29.35 132.84-28.48 133.89-27.6 134.39-26.15 134.89-24.7 134.89-23L134.89-23 134.89 0 128.09 0 128.09-21.65Q128.09-22.95 127.69-23.65 127.29-24.35 126.14-24.35L126.14-24.35Q125.44-24.35 124.56-23.95 123.69-23.55 122.89-22.9L122.89-22.9 122.89 0ZM162.68 0.55L162.68 0.55Q159.03 0.55 156.58-0.88 154.13-2.3 152.88-5.05 151.63-7.8 151.48-11.8L151.48-11.8 157.83-13.05Q157.93-10.7 158.41-8.9 158.88-7.1 159.86-6.13 160.83-5.15 162.43-5.15L162.43-5.15Q164.23-5.15 164.98-6.23 165.73-7.3 165.73-8.95L165.73-8.95Q165.73-11.6 164.53-13.3 163.33-15 161.33-16.7L161.33-16.7 156.23-21.2Q154.08-23.05 152.81-25.33 151.53-27.6 151.53-30.95L151.53-30.95Q151.53-35.75 154.33-38.35 157.13-40.95 161.98-40.95L161.98-40.95Q164.83-40.95 166.73-40.08 168.63-39.2 169.76-37.65 170.88-36.1 171.43-34.13 171.98-32.15 172.13-29.95L172.13-29.95 165.83-28.85Q165.73-30.75 165.41-32.25 165.08-33.75 164.26-34.6 163.43-35.45 161.83-35.45L161.83-35.45Q160.18-35.45 159.31-34.38 158.43-33.3 158.43-31.7L158.43-31.7Q158.43-29.65 159.28-28.33 160.13-27 161.73-25.6L161.73-25.6 166.78-21.15Q169.28-19.05 171.06-16.23 172.83-13.4 172.83-9.4L172.83-9.4Q172.83-6.5 171.56-4.25 170.28-2 168.01-0.73 165.73 0.55 162.68 0.55ZM183.23 0L176.43 0 176.43-40.5 183.23-40.5 183.23-26.15Q184.73-27.65 186.51-28.5 188.28-29.35 190.38-29.35L190.38-29.35Q192.13-29.35 193.18-28.48 194.23-27.6 194.73-26.15 195.23-24.7 195.23-23L195.23-23 195.23 0 188.43 0 188.43-21.65Q188.43-22.95 188.03-23.65 187.63-24.35 186.48-24.35L186.48-24.35Q185.78-24.35 184.91-23.95 184.03-23.55 183.23-22.9L183.23-22.9 183.23 0ZM207.18 0L200.38 0 200.38-28.9 207.18-28.9 207.18-24.45Q208.68-27 210.18-28.13 211.68-29.25 213.48-29.25L213.48-29.25Q213.78-29.25 214-29.23 214.23-29.2 214.53-29.15L214.53-29.15 214.53-22.1Q213.93-22.35 213.2-22.53 212.48-22.7 211.73-22.7L211.73-22.7Q210.38-22.7 209.28-22.05 208.18-21.4 207.18-19.9L207.18-19.9 207.18 0ZM226.63 0.45L226.63 0.45Q223.38 0.45 221.33-0.78 219.28-2 218.3-4.38 217.33-6.75 217.33-10.1L217.33-10.1 217.33-18.8Q217.33-22.25 218.3-24.6 219.28-26.95 221.35-28.15 223.43-29.35 226.63-29.35L226.63-29.35Q230.08-29.35 232-28.05 233.93-26.75 234.75-24.28 235.58-21.8 235.58-18.25L235.58-18.25 235.58-14.15 224.08-14.15 224.08-8.45Q224.08-7.05 224.35-6.15 224.63-5.25 225.23-4.85 225.83-4.45 226.68-4.45L226.68-4.45Q227.58-4.45 228.13-4.88 228.68-5.3 228.93-6.13 229.18-6.95 229.18-8.2L229.18-8.2 229.18-10.6 235.53-10.6 235.53-8.65Q235.53-4.25 233.33-1.9 231.13 0.45 226.63 0.45ZM224.08-19.5L224.08-17.5 229.18-17.5 229.18-20.25Q229.18-21.75 228.93-22.68 228.68-23.6 228.13-24.03 227.58-24.45 226.58-24.45L226.58-24.45Q225.68-24.45 225.13-24 224.58-23.55 224.33-22.5 224.08-21.45 224.08-19.5L224.08-19.5ZM248.02 0.45L248.02 0.45Q244.37 0.45 242.02-1.5 239.67-3.45 238.67-7.2L238.67-7.2 243.72-9.15Q244.32-6.8 245.32-5.55 246.32-4.3 247.92-4.3L247.92-4.3Q249.12-4.3 249.72-4.9 250.32-5.5 250.32-6.55L250.32-6.55Q250.32-7.75 249.6-8.72 248.87-9.7 247.12-11.15L247.12-11.15 243.62-14.1Q241.72-15.75 240.55-17.48 239.37-19.2 239.37-21.8L239.37-21.8Q239.37-24.15 240.45-25.83 241.52-27.5 243.4-28.43 245.27-29.35 247.57-29.35L247.57-29.35Q251.07-29.35 253.2-27.28 255.32-25.2 255.92-21.85L255.92-21.85 251.47-19.95Q251.22-21.15 250.75-22.18 250.27-23.2 249.52-23.85 248.77-24.5 247.77-24.5L247.77-24.5Q246.72-24.5 246.1-23.85 245.47-23.2 245.47-22.2L245.47-22.2Q245.47-21.35 246.2-20.45 246.92-19.55 248.27-18.4L248.27-18.4 251.82-15.2Q252.97-14.2 254.02-13.05 255.07-11.9 255.77-10.48 256.47-9.05 256.47-7.2L256.47-7.2Q256.47-4.7 255.35-3 254.22-1.3 252.3-0.43 250.37 0.45 248.02 0.45ZM268.52 0.35L268.52 0.35Q265.77 0.35 264.2-0.55 262.62-1.45 261.97-3.15 261.32-4.85 261.32-7.2L261.32-7.2 261.32-24.4 258.42-24.4 258.42-28.9 261.32-28.9 261.32-37.55 268.17-37.55 268.17-28.9 272.57-28.9 272.57-24.4 268.17-24.4 268.17-7.8Q268.17-6.3 268.82-5.68 269.47-5.05 270.77-5.05L270.77-5.05Q271.32-5.05 271.85-5.1 272.37-5.15 272.87-5.2L272.87-5.2 272.87 0Q272.02 0.1 270.9 0.23 269.77 0.35 268.52 0.35ZM283.67 0L276.87 0 276.87-40.5 283.67-40.5 283.67-26.15Q285.17-27.65 286.94-28.5 288.72-29.35 290.82-29.35L290.82-29.35Q292.57-29.35 293.62-28.48 294.67-27.6 295.17-26.15 295.67-24.7 295.67-23L295.67-23 295.67 0 288.87 0 288.87-21.65Q288.87-22.95 288.47-23.65 288.07-24.35 286.92-24.35L286.92-24.35Q286.22-24.35 285.34-23.95 284.47-23.55 283.67-22.9L283.67-22.9 283.67 0ZM306.27 0.45L306.27 0.45Q304.32 0.45 302.92-0.58 301.52-1.6 300.77-3.18 300.02-4.75 300.02-6.45L300.02-6.45Q300.02-9.15 301.02-11 302.02-12.85 303.67-14.1 305.32-15.35 307.42-16.28 309.52-17.2 311.67-17.95L311.67-17.95 311.67-20.45Q311.67-21.7 311.49-22.55 311.32-23.4 310.84-23.85 310.37-24.3 309.37-24.3L309.37-24.3Q308.52-24.3 307.99-23.9 307.47-23.5 307.24-22.78 307.02-22.05 306.97-21.1L306.97-21.1 306.87-19.35 300.42-19.6Q300.57-24.6 302.89-26.98 305.22-29.35 309.97-29.35L309.97-29.35Q314.32-29.35 316.29-26.95 318.27-24.55 318.27-20.45L318.27-20.45 318.27-7.1Q318.27-5.5 318.34-4.2 318.42-2.9 318.54-1.85 318.67-0.8 318.77 0L318.77 0 312.67 0Q312.52-1 312.29-2.27 312.07-3.55 311.97-4.15L311.97-4.15Q311.47-2.4 310.07-0.98 308.67 0.45 306.27 0.45ZM308.77-4.6L308.77-4.6Q309.42-4.6 309.99-4.93 310.57-5.25 311.02-5.7 311.47-6.15 311.67-6.5L311.67-6.5 311.67-14.55Q310.57-13.9 309.59-13.25 308.62-12.6 307.89-11.83 307.17-11.05 306.79-10.15 306.42-9.25 306.42-8.05L306.42-8.05Q306.42-6.45 307.04-5.53 307.67-4.6 308.77-4.6Z" opacity="1" transform="matrix(1,0,0,1,0,0)" fill="#ffffff" class="wordmark-text-0" data-fill-palette-color="primary" id="text-0"></path></svg></g></svg></g><g transform="matrix(1,0,0,1,0,75.0722707381246)"><svg viewBox="0 0 221.68896 31.17260351813256" height="31.17260351813256" width="221.68896"><g transform="matrix(1,0,0,1,0,0)"><svg width="221.68896" viewBox="2 -39.65 359.81 50.6" height="31.17260351813256" data-palette-color="#f13024"><path d="M17.7-35.25Q20.35-35.25 22.28-34.3 24.2-33.35 25.8-31.55L25.8-31.55 22.4-28.2Q21.3-29.3 20.15-29.85 19-30.4 17.65-30.4L17.65-30.4Q14.45-30.4 12.4-27.53 10.35-24.65 9.43-20.4 8.5-16.15 8.5-11.8L8.5-11.8Q8.5-7.95 9.73-6.15 10.95-4.35 13.2-4.35L13.2-4.35Q14.8-4.35 16.03-4.98 17.25-5.6 19.25-7.05L19.25-7.05 21.6-3.25Q17.3 0.75 12.15 0.75L12.15 0.75Q7.5 0.75 4.75-2.6 2-5.95 2-12.15L2-12.15Q2-18.05 3.73-23.33 5.45-28.6 9-31.93 12.55-35.25 17.7-35.25L17.7-35.25ZM33.85 0.75Q29.7 0.75 27.4-1.93 25.1-4.6 25.1-9.4L25.1-9.4Q25.1-13.8 26.47-17.85 27.85-21.9 30.72-24.53 33.6-27.15 37.85-27.15L37.85-27.15Q42-27.15 44.27-24.53 46.55-21.9 46.55-17.05L46.55-17.05Q46.55-12.7 45.2-8.63 43.85-4.55 40.97-1.9 38.1 0.75 33.85 0.75L33.85 0.75ZM34.25-3.95Q36.45-3.95 37.82-6.23 39.2-8.5 39.8-11.68 40.4-14.85 40.4-17.8L40.4-17.8Q40.4-22.5 37.45-22.5L37.45-22.5Q35.25-22.5 33.87-20.25 32.5-18 31.9-14.8 31.3-11.6 31.3-8.65L31.3-8.65Q31.3-3.95 34.25-3.95L34.25-3.95ZM75.9-27.2Q78.15-27.2 79.52-25.55 80.9-23.9 80.9-21.05L80.9-21.05Q80.9-20.2 80.75-19.3L80.75-19.3 77.95 0 71.9 0 74.5-18.6Q74.6-19.5 74.6-19.85L74.6-19.85Q74.6-21.95 73.35-21.95L73.35-21.95Q72.3-21.95 71.22-20.4 70.15-18.85 68.7-15.85L68.7-15.85 66.4 0 60.35 0 62.95-18.6Q63.05-19.5 63.05-19.85L63.05-19.85Q63.05-21.95 61.8-21.95L61.8-21.95Q60.75-21.95 59.62-20.35 58.5-18.75 57.1-15.75L57.1-15.75 54.95 0 48.9 0 52.6-26.45 57.85-26.45 57.6-22.15Q59.05-24.55 60.67-25.88 62.3-27.2 64.35-27.2L64.35-27.2Q66.3-27.2 67.6-25.93 68.9-24.65 69.2-22.3L69.2-22.3Q70.75-24.7 72.32-25.95 73.9-27.2 75.9-27.2L75.9-27.2ZM81.84 10.95L87.09-26.45 92.44-26.45 92.29-23.6Q95.19-27.15 98.99-27.15L98.99-27.15Q102.09-27.15 103.84-24.83 105.59-22.5 105.59-18.2L105.59-18.2Q105.59-13.25 104.29-8.95 102.99-4.65 100.19-1.95 97.39 0.75 93.14 0.75L93.14 0.75Q91.14 0.75 89.39 0L89.39 0 87.94 10.25 81.84 10.95ZM92.79-3.85Q95.04-3.85 96.54-6.1 98.04-8.35 98.74-11.65 99.44-14.95 99.44-18.1L99.44-18.1Q99.44-20.45 98.77-21.48 98.09-22.5 96.79-22.5L96.79-22.5Q95.69-22.5 94.44-21.63 93.19-20.75 92.14-19.35L92.14-19.35 90.04-4.45Q91.54-3.85 92.79-3.85L92.79-3.85ZM113.79 0.75Q111.39 0.75 109.97-0.88 108.54-2.5 108.54-5.25L108.54-5.25Q108.54-6.25 108.64-6.8L108.64-6.8 111.34-26.45 117.39-26.45 114.69-7.15Q114.64-6.85 114.64-6.35L114.64-6.35Q114.64-4.4 116.04-4.4L116.04-4.4Q118.24-4.4 120.84-9.05L120.84-9.05 123.34-26.45 129.34-26.45 125.64 0 120.44 0 120.69-4.05Q119.14-1.7 117.59-0.48 116.04 0.75 113.79 0.75L113.79 0.75ZM140.99-22L138.84-6.8Q138.79-6.55 138.79-6.1L138.79-6.1Q138.79-4.2 140.54-4.2L140.54-4.2Q141.14-4.2 141.69-4.4 142.24-4.6 143.09-5.05L143.09-5.05 144.59-1.1Q141.99 0.75 138.84 0.75L138.84 0.75Q135.94 0.75 134.34-0.9 132.74-2.55 132.74-5.45L132.74-5.45Q132.74-5.9 132.84-7L132.84-7 134.94-22 131.74-22 132.39-26.45 135.79-26.45 137.29-32.45 142.54-33.05 141.59-26.45 146.54-26.45 145.19-22 140.99-22ZM160.44-27.15Q164.04-27.15 166.06-25.25 168.09-23.35 168.09-20.4L168.09-20.4Q168.09-15.3 164.11-12.93 160.14-10.55 153.54-9.75L153.54-9.75 153.54-9.05Q153.54-6.4 154.46-5.23 155.39-4.05 157.14-4.05L157.14-4.05Q158.59-4.05 159.86-4.6 161.14-5.15 162.79-6.35L162.79-6.35 164.99-2.65Q160.94 0.75 156.29 0.75L156.29 0.75Q152.14 0.75 149.79-1.83 147.44-4.4 147.44-9.15L147.44-9.15Q147.44-13.75 148.84-17.88 150.24-22 153.19-24.58 156.14-27.15 160.44-27.15L160.44-27.15ZM153.94-13.8Q158.14-14.3 160.14-15.9 162.14-17.5 162.14-20.25L162.14-20.25Q162.14-22.8 159.84-22.8L159.84-22.8Q157.44-22.8 155.99-20.23 154.54-17.65 153.94-13.8L153.94-13.8ZM184.53-27.1Q185.53-27.1 186.68-26.75L186.68-26.75 184.78-20.85Q183.88-21.1 183.03-21.1L183.03-21.1Q181.13-21.1 179.78-19.07 178.43-17.05 177.33-13.2L177.33-13.2 175.53 0 169.48 0 173.18-26.45 178.38-26.45 178.13-21.85Q179.38-24.45 180.91-25.78 182.43-27.1 184.53-27.1L184.53-27.1ZM200.28-34.55L217.18-34.55 215.73-29.8 205.88-29.8 204.48-19.9 213.23-19.9 212.53-15.2 203.83-15.2 202.33-4.8 213.08-4.8 212.33 0 195.38 0 200.28-34.55ZM232.58-27.2Q234.93-27.2 236.35-25.55 237.78-23.9 237.78-21.05L237.78-21.05Q237.78-20.2 237.63-19.3L237.63-19.3 234.88 0 228.83 0 231.43-18.6Q231.53-19.4 231.53-19.7L231.53-19.7Q231.53-21.85 230.03-21.85L230.03-21.85Q227.93-21.85 224.88-15.7L224.88-15.7 222.73 0 216.68 0 220.38-26.45 225.63-26.45 225.38-22.05Q226.98-24.5 228.7-25.85 230.43-27.2 232.58-27.2L232.58-27.2ZM254.27-27.15Q258.42-27.15 262.42-24.95L262.42-24.95 259.02-0.65Q258.12 5.4 255.32 8.18 252.52 10.95 247.62 10.95L247.62 10.95Q245.42 10.95 243.32 10.25 241.22 9.55 239.52 8.3L239.52 8.3 241.77 4.2Q244.77 6.05 247.47 6.05L247.47 6.05Q249.67 6.05 251.12 4.75 252.57 3.45 253.07-0.05L253.07-0.05 253.52-3.45Q252.22-1.75 250.87-0.88 249.52 0 247.57 0L247.57 0Q244.37 0 242.57-2.45 240.77-4.9 240.77-9.05L240.77-9.05Q240.77-13.6 242.17-17.73 243.57-21.85 246.6-24.5 249.62-27.15 254.27-27.15L254.27-27.15ZM253.92-22.65Q251.57-22.65 250-20.63 248.42-18.6 247.65-15.45 246.87-12.3 246.87-8.95L246.87-8.95Q246.87-6.7 247.52-5.68 248.17-4.65 249.47-4.65L249.47-4.65Q250.67-4.65 251.77-5.65 252.87-6.65 254.07-8.45L254.07-8.45 255.97-22.25Q255.02-22.65 253.92-22.65L253.92-22.65ZM268.02-26.45L274.07-26.45 270.37 0 264.32 0 268.02-26.45ZM271.82-32.2Q270.27-32.2 269.4-33.08 268.52-33.95 268.52-35.45L268.52-35.45Q268.52-37.35 269.7-38.5 270.87-39.65 272.62-39.65L272.62-39.65Q274.17-39.65 275.05-38.78 275.92-37.9 275.92-36.4L275.92-36.4Q275.92-34.55 274.72-33.38 273.52-32.2 271.82-32.2L271.82-32.2ZM291.87-27.2Q294.22-27.2 295.64-25.55 297.07-23.9 297.07-21.05L297.07-21.05Q297.07-20.2 296.92-19.3L296.92-19.3 294.17 0 288.12 0 290.72-18.6Q290.82-19.4 290.82-19.7L290.82-19.7Q290.82-21.85 289.32-21.85L289.32-21.85Q287.22-21.85 284.17-15.7L284.17-15.7 282.02 0 275.97 0 279.67-26.45 284.92-26.45 284.67-22.05Q286.27-24.5 287.99-25.85 289.72-27.2 291.87-27.2L291.87-27.2ZM313.06-27.15Q316.67-27.15 318.69-25.25 320.72-23.35 320.72-20.4L320.72-20.4Q320.72-15.3 316.74-12.93 312.77-10.55 306.17-9.75L306.17-9.75 306.17-9.05Q306.17-6.4 307.09-5.23 308.02-4.05 309.77-4.05L309.77-4.05Q311.22-4.05 312.49-4.6 313.77-5.15 315.42-6.35L315.42-6.35 317.62-2.65Q313.56 0.75 308.92 0.75L308.92 0.75Q304.77 0.75 302.42-1.83 300.06-4.4 300.06-9.15L300.06-9.15Q300.06-13.75 301.47-17.88 302.87-22 305.81-24.58 308.77-27.15 313.06-27.15L313.06-27.15ZM306.56-13.8Q310.77-14.3 312.77-15.9 314.77-17.5 314.77-20.25L314.77-20.25Q314.77-22.8 312.47-22.8L312.47-22.8Q310.06-22.8 308.62-20.23 307.17-17.65 306.56-13.8L306.56-13.8ZM335.56-27.15Q339.16-27.15 341.19-25.25 343.21-23.35 343.21-20.4L343.21-20.4Q343.21-15.3 339.24-12.93 335.26-10.55 328.66-9.75L328.66-9.75 328.66-9.05Q328.66-6.4 329.59-5.23 330.51-4.05 332.26-4.05L332.26-4.05Q333.71-4.05 334.99-4.6 336.26-5.15 337.91-6.35L337.91-6.35 340.11-2.65Q336.06 0.75 331.41 0.75L331.41 0.75Q327.26 0.75 324.91-1.83 322.56-4.4 322.56-9.15L322.56-9.15Q322.56-13.75 323.96-17.88 325.36-22 328.31-24.58 331.26-27.15 335.56-27.15L335.56-27.15ZM329.06-13.8Q333.26-14.3 335.26-15.9 337.26-17.5 337.26-20.25L337.26-20.25Q337.26-22.8 334.96-22.8L334.96-22.8Q332.56-22.8 331.11-20.23 329.66-17.65 329.06-13.8L329.06-13.8ZM359.66-27.1Q360.66-27.1 361.81-26.75L361.81-26.75 359.91-20.85Q359.01-21.1 358.16-21.1L358.16-21.1Q356.26-21.1 354.91-19.07 353.56-17.05 352.46-13.2L352.46-13.2 350.66 0 344.61 0 348.31-26.45 353.51-26.45 353.26-21.85Q354.51-24.45 356.04-25.78 357.56-27.1 359.66-27.1L359.66-27.1Z" opacity="1" transform="matrix(1,0,0,1,0,0)" fill="#ffffff" class="slogan-text-1" data-fill-palette-color="secondary" id="text-1"></path></svg></g></svg></g></svg></g></svg></g><g><svg viewBox="0 0 134.51209175796106 146.83041622214742" height="146.83041622214742" width="134.51209175796106"><g><svg xmlns="http://www.w3.org/2000/svg" xmlns:xlink="http://www.w3.org/1999/xlink" version="1.1" x="8" y="0" viewBox="13.055999999999997 3.853999999999992 73.974 91.65" enable-background="new 0 0 100 100" xml:space="preserve" height="146.83041622214742" width="118.51209175796107" class="icon-icon-0" data-fill-palette-color="accent" id="icon-0"><g fill="#f3f2ee" data-fill-palette-color="accent"><path fill="none" d="M49.955 40.819c6.486 0 11.826-7.164 12.517-16.367 0.087-0.595 0.134-1.203 0.141-1.821l-2.023 2.326c1.117-2.473-2.86-8.769-2.86-8.769-6.703 4.85-16.671 0-16.671 0-3.007 1.187-1.583 9.646-1.583 9.646-0.75-0.522-1.438-0.796-2-0.937C38.302 33.889 43.574 40.819 49.955 40.819z"></path><g fill="#f3f2ee" data-fill-palette-color="accent"><path fill="none" d="M23.224 51.659h-6.299c-1.941 0-3.515 1.556-3.515 3.473l7.096 32.391c0 1.92 1.573 3.474 3.514 3.474h52.045c1.941 0 3.514-1.557 3.514-3.474l7.095-32.391c0-1.917-1.572-3.472-3.513-3.472h-6.145M50.043 73.526c-1.042 0-1.886-0.845-1.886-1.885 0-1.043 0.844-1.888 1.886-1.888s1.885 0.845 1.885 1.888C51.928 72.681 51.084 73.526 50.043 73.526z"></path><path fill="none" d="M55.097 51.659h-3.455"></path><path fill="#ffffff" d="M61.563 40.629c-0.038 1.726-3.054 6.313-6.049 10.453h21.227C73.913 45.337 68.242 41.24 61.563 40.629z" data-fill-palette-color="accent"></path><path fill="#ffffff" d="M51.407 48.281c1.323-0.684 2.35-2.109 2.35-3.558 0 0-1.97 0.871-3.978 0.871-2.008 0-3.979-0.871-3.979-0.871 0 1.448 1.026 2.872 2.351 3.558l-0.196 2.802h3.646L51.407 48.281z" data-fill-palette-color="accent"></path><path fill="#ffffff" d="M38.68 40.629c-6.681 0.61-12.35 4.707-15.181 10.453h20.702C41.47 46.942 38.718 42.355 38.68 40.629z" data-fill-palette-color="accent"></path><g fill="#f3f2ee" data-fill-palette-color="accent"><circle fill="#ffffff" cx="50.043" cy="71.639" r="1.9" data-fill-palette-color="accent"></circle><path fill="#ffffff" d="M79.831 92.466H20.255c-0.837 0-1.518 0.681-1.518 1.519s0.68 1.519 1.518 1.519h59.576c0.839 0 1.518-0.681 1.518-1.519S80.669 92.466 79.831 92.466z" data-fill-palette-color="accent"></path></g><path fill="#ffffff" d="M55.097 51.659c0.138-0.191 0.277-0.383 0.417-0.575h-3.912l0.04 0.575H55.097z" data-fill-palette-color="accent"></path><path fill="#ffffff" d="M47.914 51.659l0.042-0.575h-3.754c0.127 0.194 0.254 0.384 0.382 0.575H47.914z" data-fill-palette-color="accent"></path><path fill="#ffffff" d="M23.699 91.57h52.687c1.96 0 3.548-1.588 3.548-3.548l7.096-33.391c0-1.959-1.587-3.548-3.548-3.548h-6.74c0.096 0.189 0.188 0.381 0.275 0.575h6.146c1.94 0 3.514 1.556 3.514 3.473l-7.098 32.391c0 1.92-1.57 3.474-3.514 3.474H24.02c-1.941 0-3.514-1.557-3.514-3.474l-7.097-32.391c0-1.919 1.574-3.473 3.515-3.473h6.3c0.087-0.194 0.182-0.386 0.275-0.575h-6.896c-1.959 0-3.547 1.589-3.547 3.548l7.095 33.391C20.15 89.982 21.739 91.57 23.699 91.57z" data-fill-palette-color="accent"></path><path fill="#ffffff" d="M44.583 51.659c-0.127-0.191-0.255-0.382-0.382-0.575H23.499c-0.094 0.189-0.188 0.381-0.275 0.575H44.583z" data-fill-palette-color="accent"></path><polygon fill="#ffffff" points="51.642,51.659 51.602,51.083 47.954,51.083 47.914,51.659   " data-fill-palette-color="accent"></polygon><path fill="#ffffff" d="M77.017 51.659c-0.088-0.194-0.18-0.386-0.275-0.575H55.514c-0.14 0.193-0.279 0.386-0.417 0.575H77.017z" data-fill-palette-color="accent"></path></g><g fill="#f3f2ee" data-fill-palette-color="accent"><g fill="#f3f2ee" data-fill-palette-color="accent"><path fill="#ffffff" d="M36.011 23.006h0.008 0.322c-0.001 0.099-0.005 0.198-0.005 0.298 0 0.303 0.011 0.602 0.028 0.898 0.026 0.434 0.067 0.863 0.128 1.287 0.01 0.13 0.021 0.257 0.032 0.386 0.863 9.758 6.571 17.297 13.489 17.297 7.005 0 12.772-7.736 13.518-17.678 0.104-0.713 0.158-1.445 0.158-2.189 0-0.1-0.003-0.199-0.006-0.297h0.381 0.009c1.129 0 3.831-0.916 3.831-2.044 0-1.13-2.702-2.044-3.831-2.044h-0.009c-0.752-5.202-4.104-10.308-8.898-12.582l-0.275 3.654-0.195 2.359-0.355-0.007 0.185-2.629 0.259-3.673 0.052-0.756-2.24-0.096-0.003 0.09-0.121 3.862-0.098 3.117-0.007 0.184-0.178 5.723H51.8l0.249-9.095 0.107-3.884 0.037-1.333H47.28l0.041 1.469 0.104 3.846 0.247 8.998h-0.388l-0.179-5.728-0.006-0.184-0.094-2.995-0.119-3.817-0.008-0.256-2.329 0.1 0.076 1.089 0.252 3.588 0.166 2.381-0.356 0.007-0.175-2.104L44.245 6.68c-4.455 2.435-7.509 7.284-8.225 12.239h-0.008c-1.129 0-3.831 0.915-3.831 2.044C32.181 22.092 34.882 23.006 36.011 23.006zM39.758 23.006h20.158c0.365 1.173 0.519 2.288 0.181 3.034l1.919-2.204c-0.007 0.583-0.053 1.162-0.133 1.724C61.228 34.29 56.165 41.08 50.014 41.08c-6.051 0-11.049-6.572-11.835-15.096 0.533 0.133 1.186 0.392 1.897 0.888C40.076 26.872 39.769 25.042 39.758 23.006z" data-fill-palette-color="accent"></path></g></g></g></svg></g></svg></g></svg></g><defs></defs></svg><rect width="395.52" height="106.68178765680136" fill="none" stroke="none" visibility="hidden"></rect></g></svg></g></svg>